<svg width="8" height="12" viewBox="0 0 8 12" fill="none" xmlns="http://www.w3.org/2000/svg">
<path d="M7.57324 6.45166C7.57324 8.03857 7.30225 9.21777 6.76025 9.98926C6.21826 10.7607 5.37109 11.1465 4.21875 11.1465C3.08105 11.1465 2.23877 10.7705 1.69189 10.0186C1.14502 9.26172 0.861816 8.13379 0.842285 6.63477V4.82568C0.842285 3.2583 1.11328 2.09375 1.65527 1.33203C2.19727 0.570312 3.04688 0.189453 4.2041 0.189453C5.35156 0.189453 6.19629 0.558105 6.73828 1.29541C7.28027 2.02783 7.55859 3.16064 7.57324 4.69385V6.45166ZM6.21826 4.59863C6.21826 3.45117 6.05713 2.61621 5.73486 2.09375C5.4126 1.56641 4.90234 1.30273 4.2041 1.30273C3.51074 1.30273 3.00537 1.56396 2.68799 2.08643C2.37061 2.60889 2.20703 3.41211 2.19727 4.49609V6.66406C2.19727 7.81641 2.36328 8.66846 2.69531 9.22021C3.03223 9.76709 3.54004 10.0405 4.21875 10.0405C4.8877 10.0405 5.3833 9.78174 5.70557 9.26416C6.03271 8.74658 6.20361 7.93115 6.21826 6.81787V4.59863Z" fill="#B4604D"/>
</svg>
